<svg width="288" height="112" viewBox="0 0 288 112" fill="none" xmlns="http://www.w3.org/2000/svg">
<path d="M154.772 43.6041H133.228C131.653 43.6041 130.141 42.9782 129.027 41.8639C127.913 40.7496 127.287 39.2383 127.287 37.6625V8.33748C127.287 6.76165 127.913 5.25037 129.027 4.13609C130.141 3.02181 131.653 2.39581 133.228 2.39581H146.434C146.955 2.39663 147.47 2.50035 147.95 2.701C148.43 2.90165 148.866 3.19528 149.233 3.56498L159.582 14.0491C160.308 14.7848 160.714 15.7763 160.713 16.8091V37.6625C160.713 39.2383 160.087 40.7496 158.973 41.8639C157.859 42.9782 156.347 43.6041 154.772 43.6041ZM133.228 5.27081C132.415 5.27081 131.635 5.59391 131.06 6.16902C130.485 6.74413 130.162 7.52415 130.162 8.33748V37.6625C130.162 38.4758 130.485 39.2558 131.06 39.8309C131.635 40.4061 132.415 40.7291 133.228 40.7291H154.772C155.585 40.7291 156.365 40.4061 156.94 39.8309C157.515 39.2558 157.838 38.4758 157.838 37.6625V16.8091C157.832 16.5307 157.722 16.2645 157.532 16.0616L147.182 5.57748C147.083 5.47972 146.967 5.40231 146.838 5.34969C146.71 5.29707 146.573 5.27026 146.434 5.27081H133.228Z" fill="#D8D8E5"/>
<path d="M159.218 17.7292H152.855C150.896 17.7292 149.017 16.9523 147.63 15.569C146.243 14.1857 145.462 12.3088 145.457 10.35V3.83334C145.455 3.63525 145.496 3.4391 145.575 3.25754C145.654 3.07598 145.771 2.91302 145.917 2.77918C146.078 2.64111 146.27 2.54174 146.475 2.4886C146.681 2.43546 146.897 2.42996 147.105 2.47251C147.892 2.61196 148.616 2.99394 149.175 3.56501L159.525 14.0492C160.043 14.5784 160.402 15.2425 160.56 15.9658C160.606 16.1743 160.605 16.3905 160.556 16.5983C160.507 16.8062 160.411 17.0002 160.277 17.1661C160.142 17.3319 159.972 17.4652 159.779 17.5561C159.586 17.6469 159.374 17.693 159.161 17.6908L159.218 17.7292ZM148.332 6.74668V10.35C148.337 11.5463 148.816 12.692 149.663 13.5361C150.511 14.3803 151.659 14.8542 152.855 14.8542H156.343L148.332 6.74668Z" fill="#D8D8E5"/>
<path d="M152.146 33.0433L148.159 29.21C149.06 27.9591 149.549 26.4584 149.558 24.9166C149.577 23.2081 149.025 21.5423 147.989 20.1837C146.952 18.825 145.492 17.8514 143.84 17.4173C142.187 16.9833 140.437 17.1137 138.867 17.7879C137.297 18.4621 135.997 19.6414 135.174 21.1386C134.351 22.6358 134.051 24.3651 134.323 26.0519C134.595 27.7388 135.422 29.2865 136.674 30.4494C137.926 31.6123 139.53 32.3237 141.233 32.4707C142.935 32.6177 144.637 32.1919 146.07 31.2608L150.172 35.0941C150.439 35.3521 150.797 35.4964 151.168 35.4966C151.364 35.4988 151.557 35.4588 151.736 35.3794C151.915 35.3001 152.074 35.1831 152.203 35.0366C152.453 34.7615 152.587 34.4001 152.576 34.0284C152.566 33.6567 152.411 33.3036 152.146 33.0433ZM137.33 24.9166C137.33 23.995 137.603 23.0939 138.113 22.3266C138.624 21.5592 139.35 20.9599 140.2 20.6038C141.05 20.2477 141.986 20.1507 142.891 20.325C143.796 20.4993 144.63 20.9372 145.287 21.5836C145.944 22.23 146.395 23.0561 146.584 23.9582C146.773 24.8603 146.691 25.7981 146.349 26.6538C146.007 27.5096 145.419 28.2452 144.66 28.7682C143.901 29.2911 143.005 29.5782 142.083 29.5933C141.463 29.6009 140.848 29.4857 140.273 29.2543C139.698 29.0229 139.174 28.6799 138.732 28.2452C138.291 27.8104 137.939 27.2924 137.698 26.7211C137.458 26.1499 137.332 25.5366 137.33 24.9166Z" fill="#D8D8E5"/>
<path d="M62.7754 55.8182V66H61.2441V57.1307H56.4515V66H54.9203V55.8182H62.7754ZM68.2218 66.1541C67.5059 66.1541 66.8811 65.9901 66.3475 65.6619C65.8139 65.3338 65.3996 64.8748 65.1046 64.2848C64.8096 63.6948 64.6621 63.0054 64.6621 62.2166C64.6621 61.4245 64.8096 60.7318 65.1046 60.1385C65.3996 59.5452 65.8139 59.0845 66.3475 58.7564C66.8811 58.4283 67.5059 58.2642 68.2218 58.2642C68.9377 58.2642 69.5624 58.4283 70.0961 58.7564C70.6297 59.0845 71.044 59.5452 71.339 60.1385C71.6339 60.7318 71.7814 61.4245 71.7814 62.2166C71.7814 63.0054 71.6339 63.6948 71.339 64.2848C71.044 64.8748 70.6297 65.3338 70.0961 65.6619C69.5624 65.9901 68.9377 66.1541 68.2218 66.1541ZM68.2267 64.9062C68.6908 64.9062 69.0752 64.7836 69.3801 64.5384C69.6851 64.2931 69.9105 63.9666 70.0563 63.5589C70.2054 63.1513 70.28 62.7022 70.28 62.2116C70.28 61.7244 70.2054 61.277 70.0563 60.8693C69.9105 60.4583 69.6851 60.1286 69.3801 59.88C69.0752 59.6314 68.6908 59.5071 68.2267 59.5071C67.7594 59.5071 67.3716 59.6314 67.0634 59.88C66.7585 60.1286 66.5314 60.4583 66.3823 60.8693C66.2364 61.277 66.1635 61.7244 66.1635 62.2116C66.1635 62.7022 66.2364 63.1513 66.3823 63.5589C66.5314 63.9666 66.7585 64.2931 67.0634 64.5384C67.3716 64.7836 67.7594 64.9062 68.2267 64.9062ZM74.8974 63.9169L78.2631 58.3636H79.864V66H78.4073V60.4418L75.0565 66H73.4407V58.3636H74.8974V63.9169ZM85.0792 66.1541C84.3401 66.1541 83.7037 65.9867 83.1701 65.652C82.6398 65.3139 82.2321 64.8482 81.9471 64.255C81.6621 63.6617 81.5195 62.9822 81.5195 62.2166C81.5195 61.4411 81.6654 60.7566 81.957 60.1634C82.2487 59.5668 82.6597 59.1011 83.19 58.7663C83.7203 58.4316 84.3451 58.2642 85.0643 58.2642C85.6443 58.2642 86.1613 58.3719 86.6154 58.5874C87.0695 58.7995 87.4357 59.0978 87.7141 59.4822C87.9959 59.8667 88.1632 60.3158 88.2163 60.8295H86.7695C86.69 60.4716 86.5077 60.1634 86.2227 59.9048C85.9409 59.6463 85.5631 59.517 85.0891 59.517C84.6748 59.517 84.3119 59.6264 84.0004 59.8452C83.6921 60.0606 83.4518 60.3688 83.2795 60.7699C83.1071 61.1676 83.021 61.6383 83.021 62.1818C83.021 62.7386 83.1055 63.2192 83.2745 63.6236C83.4435 64.0279 83.6822 64.3411 83.9904 64.5632C84.302 64.7853 84.6682 64.8963 85.0891 64.8963C85.3709 64.8963 85.6261 64.8449 85.8548 64.7422C86.0868 64.6361 86.2807 64.4853 86.4364 64.2898C86.5955 64.0942 86.7066 63.8589 86.7695 63.5838H88.2163C88.1632 64.0777 88.0025 64.5185 87.734 64.9062C87.4656 65.294 87.1059 65.599 86.6552 65.821C86.2077 66.0431 85.6824 66.1541 85.0792 66.1541ZM89.8059 66V58.3636H91.2924V61.5653H92.0083L94.5289 58.3636H96.3684L93.4103 62.0774L96.4032 66H94.5588L92.2569 62.9474H91.2924V66H89.8059ZM106.438 61.5405V62.8281H102.302V61.5405H106.438ZM102.72 58.3636V66H101.263V58.3636H102.72ZM107.477 58.3636V66H106.026V58.3636H107.477ZM112.757 66.1541C112.005 66.1541 111.357 65.9934 110.813 65.6719C110.273 65.3471 109.856 64.8913 109.561 64.3047C109.269 63.7147 109.123 63.0237 109.123 62.2315C109.123 61.4493 109.269 60.7599 109.561 60.1634C109.856 59.5668 110.267 59.1011 110.794 58.7663C111.324 58.4316 111.944 58.2642 112.653 58.2642C113.084 58.2642 113.501 58.3355 113.906 58.478C114.31 58.6205 114.673 58.8442 114.994 59.1491C115.316 59.4541 115.57 59.8501 115.755 60.3374C115.941 60.8213 116.034 61.4096 116.034 62.1023V62.6293H109.963V61.5156H114.577C114.577 61.1245 114.497 60.7782 114.338 60.4766C114.179 60.1716 113.955 59.9313 113.667 59.7557C113.382 59.58 113.047 59.4922 112.663 59.4922C112.245 59.4922 111.881 59.5949 111.569 59.8004C111.261 60.0026 111.022 60.2678 110.853 60.5959C110.687 60.9207 110.605 61.2737 110.605 61.6548V62.5249C110.605 63.0353 110.694 63.4695 110.873 63.8274C111.055 64.1854 111.309 64.4588 111.634 64.6477C111.959 64.8333 112.338 64.9261 112.772 64.9261C113.054 64.9261 113.311 64.8864 113.543 64.8068C113.775 64.724 113.975 64.6013 114.144 64.4389C114.313 64.2765 114.443 64.076 114.532 63.8374L115.939 64.0909C115.826 64.5052 115.624 64.8681 115.333 65.1797C115.044 65.4879 114.681 65.7282 114.244 65.9006C113.81 66.0696 113.314 66.1541 112.757 66.1541ZM120.642 68.2024V64.7124H121.264C121.423 64.5665 121.557 64.3925 121.666 64.1903C121.779 63.9882 121.874 63.7479 121.95 63.4695C122.029 63.1911 122.096 62.8662 122.149 62.495C122.202 62.1205 122.248 61.6929 122.288 61.2124L122.526 58.3636H127.717V64.7124H128.89V68.2024H127.438V66H122.114V68.2024H120.642ZM122.855 64.7124H126.265V59.6364H123.859L123.7 61.2124C123.624 62.0144 123.527 62.7105 123.411 63.3004C123.295 63.8871 123.11 64.3577 122.855 64.7124ZM132.565 66.169C132.081 66.169 131.644 66.0795 131.253 65.9006C130.862 65.7183 130.552 65.4548 130.323 65.1101C130.098 64.7654 129.985 64.3428 129.985 63.8423C129.985 63.4115 130.068 63.0568 130.234 62.7784C130.399 62.5 130.623 62.2796 130.905 62.1172C131.187 61.9548 131.501 61.8321 131.849 61.7493C132.197 61.6664 132.552 61.6035 132.913 61.5604C133.371 61.5073 133.742 61.4643 134.027 61.4311C134.312 61.3946 134.519 61.3366 134.648 61.2571C134.778 61.1776 134.842 61.0483 134.842 60.8693V60.8345C134.842 60.4003 134.72 60.0639 134.474 59.8253C134.232 59.5866 133.871 59.4673 133.391 59.4673C132.89 59.4673 132.496 59.5784 132.207 59.8004C131.922 60.0192 131.725 60.2628 131.616 60.5312L130.219 60.2131C130.384 59.7491 130.626 59.3745 130.945 59.0895C131.266 58.8011 131.636 58.5923 132.053 58.4631C132.471 58.3305 132.91 58.2642 133.371 58.2642C133.676 58.2642 133.999 58.3007 134.34 58.3736C134.685 58.4432 135.006 58.5724 135.305 58.7614C135.606 58.9503 135.853 59.2204 136.045 59.5717C136.238 59.9197 136.334 60.3722 136.334 60.929V66H134.882V64.956H134.822C134.726 65.1482 134.582 65.3371 134.39 65.5227C134.198 65.7083 133.951 65.8625 133.649 65.9851C133.348 66.1077 132.986 66.169 132.565 66.169ZM132.888 64.9759C133.299 64.9759 133.651 64.8946 133.942 64.7322C134.237 64.5698 134.461 64.3577 134.614 64.0959C134.769 63.8307 134.847 63.5473 134.847 63.2457V62.2614C134.794 62.3144 134.692 62.3641 134.539 62.4105C134.39 62.4536 134.219 62.4917 134.027 62.5249C133.835 62.5547 133.647 62.5829 133.465 62.6094C133.283 62.6326 133.13 62.6525 133.008 62.669C132.719 62.7055 132.456 62.7668 132.217 62.853C131.982 62.9392 131.793 63.0634 131.651 63.2259C131.511 63.3849 131.442 63.5971 131.442 63.8622C131.442 64.2301 131.578 64.5085 131.849 64.6974C132.121 64.883 132.468 64.9759 132.888 64.9759ZM137.712 66L137.707 64.7124H137.981C138.193 64.7124 138.37 64.6676 138.513 64.5781C138.658 64.4853 138.778 64.3295 138.871 64.1108C138.963 63.892 139.035 63.5904 139.084 63.206C139.134 62.8182 139.171 62.331 139.194 61.7443L139.328 58.3636H144.657V66H143.201V59.6463H140.705L140.586 62.2415C140.556 62.8712 140.491 63.4214 140.392 63.892C140.296 64.3627 140.155 64.7554 139.969 65.0703C139.784 65.3819 139.545 65.6155 139.253 65.7713C138.962 65.9238 138.607 66 138.189 66H137.712ZM150.345 68.8636V58.3636H151.797V59.6016H151.921C152.007 59.4425 152.131 59.2585 152.294 59.0497C152.456 58.8409 152.682 58.6586 152.97 58.5028C153.258 58.3438 153.64 58.2642 154.113 58.2642C154.73 58.2642 155.28 58.42 155.764 58.7315C156.248 59.0431 156.627 59.4922 156.903 60.0788C157.181 60.6655 157.32 61.3714 157.32 62.1967C157.32 63.022 157.183 63.7296 156.907 64.3196C156.632 64.9062 156.255 65.3587 155.774 65.6768C155.293 65.9917 154.745 66.1491 154.128 66.1491C153.664 66.1491 153.285 66.0713 152.99 65.9155C152.698 65.7597 152.47 65.5774 152.304 65.3686C152.138 65.1598 152.01 64.9742 151.921 64.8118H151.831V68.8636H150.345ZM151.802 62.1818C151.802 62.7187 151.88 63.1894 152.035 63.5938C152.191 63.9981 152.416 64.3146 152.711 64.5433C153.006 64.7687 153.368 64.8814 153.795 64.8814C154.239 64.8814 154.611 64.7637 154.909 64.5284C155.207 64.2898 155.433 63.9666 155.585 63.5589C155.741 63.1513 155.819 62.6922 155.819 62.1818C155.819 61.678 155.742 61.2256 155.59 60.8246C155.441 60.4235 155.215 60.107 154.914 59.875C154.616 59.643 154.243 59.527 153.795 59.527C153.364 59.527 153 59.638 152.702 59.8601C152.407 60.0821 152.183 60.392 152.03 60.7898C151.878 61.1875 151.802 61.6515 151.802 62.1818ZM162.277 66.1541C161.524 66.1541 160.876 65.9934 160.333 65.6719C159.793 65.3471 159.375 64.8913 159.08 64.3047C158.788 63.7147 158.643 63.0237 158.643 62.2315C158.643 61.4493 158.788 60.7599 159.08 60.1634C159.375 59.5668 159.786 59.1011 160.313 58.7663C160.843 58.4316 161.463 58.2642 162.172 58.2642C162.603 58.2642 163.021 58.3355 163.425 58.478C163.83 58.6205 164.193 58.8442 164.514 59.1491C164.836 59.4541 165.089 59.8501 165.275 60.3374C165.46 60.8213 165.553 61.4096 165.553 62.1023V62.6293H159.483V61.5156H164.096C164.096 61.1245 164.017 60.7782 163.858 60.4766C163.699 60.1716 163.475 59.9313 163.187 59.7557C162.902 59.58 162.567 59.4922 162.182 59.4922C161.765 59.4922 161.4 59.5949 161.089 59.8004C160.78 60.0026 160.542 60.2678 160.373 60.5959C160.207 60.9207 160.124 61.2737 160.124 61.6548V62.5249C160.124 63.0353 160.214 63.4695 160.393 63.8274C160.575 64.1854 160.828 64.4588 161.153 64.6477C161.478 64.8333 161.858 64.9261 162.292 64.9261C162.573 64.9261 162.83 64.8864 163.062 64.8068C163.294 64.724 163.495 64.6013 163.664 64.4389C163.833 64.2765 163.962 64.076 164.052 63.8374L165.459 64.0909C165.346 64.5052 165.144 64.8681 164.852 65.1797C164.564 65.4879 164.201 65.7282 163.763 65.9006C163.329 66.0696 162.834 66.1541 162.277 66.1541ZM166.75 63.9815H168.271C168.291 64.2931 168.432 64.5334 168.694 64.7024C168.959 64.8714 169.302 64.956 169.723 64.956C170.151 64.956 170.515 64.8648 170.817 64.6825C171.118 64.4969 171.269 64.2102 171.269 63.8224C171.269 63.5904 171.211 63.3883 171.095 63.2159C170.982 63.0402 170.822 62.9044 170.613 62.8082C170.407 62.7121 170.164 62.6641 169.882 62.6641H168.639V61.4957H169.882C170.303 61.4957 170.618 61.3996 170.827 61.2074C171.036 61.0152 171.14 60.7749 171.14 60.4865C171.14 60.175 171.027 59.9247 170.802 59.7358C170.58 59.5436 170.27 59.4474 169.872 59.4474C169.468 59.4474 169.131 59.5386 168.863 59.7209C168.594 59.8999 168.454 60.1319 168.44 60.4169H166.939C166.949 59.9893 167.078 59.6148 167.327 59.2933C167.579 58.9685 167.917 58.7166 168.341 58.5376C168.768 58.3554 169.254 58.2642 169.798 58.2642C170.364 58.2642 170.855 58.3554 171.269 58.5376C171.683 58.7199 172.003 58.9718 172.229 59.2933C172.457 59.6148 172.572 59.9844 172.572 60.402C172.572 60.8229 172.446 61.1676 172.194 61.4361C171.945 61.7012 171.621 61.8918 171.219 62.0078V62.0874C171.514 62.1072 171.776 62.1967 172.005 62.3558C172.234 62.5149 172.413 62.7254 172.542 62.9872C172.671 63.2491 172.736 63.5457 172.736 63.8771C172.736 64.3445 172.607 64.7488 172.348 65.0902C172.093 65.4316 171.738 65.6951 171.284 65.8807C170.833 66.063 170.318 66.1541 169.738 66.1541C169.174 66.1541 168.669 66.0663 168.222 65.8906C167.777 65.7116 167.424 65.4598 167.163 65.1349C166.904 64.8101 166.767 64.4257 166.75 63.9815ZM175.21 68.8636C174.988 68.8636 174.786 68.8454 174.604 68.8089C174.422 68.7758 174.286 68.7393 174.196 68.6996L174.554 67.4815C174.826 67.5545 175.068 67.5859 175.28 67.576C175.492 67.5661 175.679 67.4865 175.842 67.3374C176.008 67.1882 176.153 66.9446 176.279 66.6065L176.463 66.0994L173.669 58.3636H175.26L177.194 64.2898H177.274L179.208 58.3636H180.803L177.656 67.0192C177.511 67.4169 177.325 67.7533 177.1 68.0284C176.874 68.3068 176.606 68.5156 176.294 68.6548C175.983 68.794 175.621 68.8636 175.21 68.8636ZM180.97 66L180.965 64.7124H181.238C181.451 64.7124 181.628 64.6676 181.77 64.5781C181.916 64.4853 182.036 64.3295 182.128 64.1108C182.221 63.892 182.292 63.5904 182.342 63.206C182.392 62.8182 182.428 62.331 182.452 61.7443L182.586 58.3636H187.915V66H186.459V59.6463H183.963L183.844 62.2415C183.814 62.8712 183.749 63.4214 183.65 63.892C183.554 64.3627 183.413 64.7554 183.227 65.0703C183.041 65.3819 182.803 65.6155 182.511 65.7713C182.22 65.9238 181.865 66 181.447 66H180.97ZM191.016 60.9886H193.234C194.168 60.9886 194.888 61.2206 195.391 61.6847C195.895 62.1487 196.147 62.7469 196.147 63.4794C196.147 63.9567 196.034 64.3859 195.809 64.767C195.584 65.1482 195.254 65.4498 194.82 65.6719C194.385 65.8906 193.857 66 193.234 66H189.898V58.3636H191.354V64.7173H193.234C193.661 64.7173 194.013 64.6063 194.288 64.3842C194.563 64.1589 194.7 63.8722 194.7 63.5241C194.7 63.1562 194.563 62.8563 194.288 62.6243C194.013 62.389 193.661 62.2713 193.234 62.2713H191.016V60.9886ZM196.593 59.6463V58.3636H203.036V59.6463H200.546V66H199.094V59.6463H196.593ZM206.475 66.169C205.992 66.169 205.554 66.0795 205.163 65.9006C204.772 65.7183 204.462 65.4548 204.233 65.1101C204.008 64.7654 203.895 64.3428 203.895 63.8423C203.895 63.4115 203.978 63.0568 204.144 62.7784C204.31 62.5 204.533 62.2796 204.815 62.1172C205.097 61.9548 205.412 61.8321 205.76 61.7493C206.108 61.6664 206.462 61.6035 206.824 61.5604C207.281 61.5073 207.652 61.4643 207.937 61.4311C208.222 61.3946 208.429 61.3366 208.559 61.2571C208.688 61.1776 208.752 61.0483 208.752 60.8693V60.8345C208.752 60.4003 208.63 60.0639 208.385 59.8253C208.143 59.5866 207.781 59.4673 207.301 59.4673C206.8 59.4673 206.406 59.5784 206.118 59.8004C205.833 60.0192 205.635 60.2628 205.526 60.5312L204.129 60.2131C204.295 59.7491 204.537 59.3745 204.855 59.0895C205.176 58.8011 205.546 58.5923 205.963 58.4631C206.381 58.3305 206.82 58.2642 207.281 58.2642C207.586 58.2642 207.909 58.3007 208.25 58.3736C208.595 58.4432 208.917 58.5724 209.215 58.7614C209.516 58.9503 209.763 59.2204 209.956 59.5717C210.148 59.9197 210.244 60.3722 210.244 60.929V66H208.792V64.956H208.733C208.636 65.1482 208.492 65.3371 208.3 65.5227C208.108 65.7083 207.861 65.8625 207.559 65.9851C207.258 66.1077 206.896 66.169 206.475 66.169ZM206.799 64.9759C207.21 64.9759 207.561 64.8946 207.853 64.7322C208.148 64.5698 208.371 64.3577 208.524 64.0959C208.68 63.8307 208.757 63.5473 208.757 63.2457V62.2614C208.704 62.3144 208.602 62.3641 208.449 62.4105C208.3 62.4536 208.129 62.4917 207.937 62.5249C207.745 62.5547 207.558 62.5829 207.375 62.6094C207.193 62.6326 207.041 62.6525 206.918 62.669C206.63 62.7055 206.366 62.7668 206.127 62.853C205.892 62.9392 205.703 63.0634 205.561 63.2259C205.422 63.3849 205.352 63.5971 205.352 63.8622C205.352 64.2301 205.488 64.5085 205.76 64.6974C206.031 64.883 206.378 64.9759 206.799 64.9759ZM211.277 59.6463V58.3636H217.72V59.6463H215.229V66H213.778V59.6463H211.277ZM222.153 66.1541C221.438 66.1541 220.813 65.9901 220.279 65.6619C219.746 65.3338 219.331 64.8748 219.036 64.2848C218.741 63.6948 218.594 63.0054 218.594 62.2166C218.594 61.4245 218.741 60.7318 219.036 60.1385C219.331 59.5452 219.746 59.0845 220.279 58.7564C220.813 58.4283 221.438 58.2642 222.153 58.2642C222.869 58.2642 223.494 58.4283 224.028 58.7564C224.561 59.0845 224.976 59.5452 225.271 60.1385C225.566 60.7318 225.713 61.4245 225.713 62.2166C225.713 63.0054 225.566 63.6948 225.271 64.2848C224.976 64.8748 224.561 65.3338 224.028 65.6619C223.494 65.9901 222.869 66.1541 222.153 66.1541ZM222.158 64.9062C222.622 64.9062 223.007 64.7836 223.312 64.5384C223.617 64.2931 223.842 63.9666 223.988 63.5589C224.137 63.1513 224.212 62.7022 224.212 62.2116C224.212 61.7244 224.137 61.277 223.988 60.8693C223.842 60.4583 223.617 60.1286 223.312 59.88C223.007 59.6314 222.622 59.5071 222.158 59.5071C221.691 59.5071 221.303 59.6314 220.995 59.88C220.69 60.1286 220.463 60.4583 220.314 60.8693C220.168 61.277 220.095 61.7244 220.095 62.2116C220.095 62.7022 220.168 63.1513 220.314 63.5589C220.463 63.9666 220.69 64.2931 220.995 64.5384C221.303 64.7836 221.691 64.9062 222.158 64.9062ZM227.372 66V58.3636H230.539C231.401 58.3636 232.084 58.5476 232.588 58.9155C233.091 59.2801 233.343 59.7756 233.343 60.402C233.343 60.8494 233.201 61.2041 232.916 61.4659C232.631 61.7277 232.253 61.9034 231.782 61.9929C232.124 62.0327 232.437 62.1354 232.722 62.3011C233.007 62.4635 233.235 62.6823 233.408 62.9574C233.584 63.2325 233.671 63.5606 233.671 63.9418C233.671 64.3461 233.567 64.7041 233.358 65.0156C233.149 65.3239 232.846 65.5658 232.448 65.7415C232.054 65.9138 231.578 66 231.021 66H227.372ZM228.769 64.7571H231.021C231.389 64.7571 231.678 64.6693 231.887 64.4936C232.095 64.3179 232.2 64.0793 232.2 63.7777C232.2 63.4231 232.095 63.1446 231.887 62.9425C231.678 62.737 231.389 62.6342 231.021 62.6342H228.769V64.7571ZM228.769 61.5455H230.554C230.833 61.5455 231.071 61.5057 231.27 61.4261C231.472 61.3466 231.626 61.2339 231.732 61.0881C231.842 60.9389 231.896 60.7633 231.896 60.5611C231.896 60.2661 231.776 60.0357 231.534 59.87C231.292 59.7043 230.96 59.6214 230.539 59.6214H228.769V61.5455Z" fill="#7E8299"/>
<path d="M13.8809 77.2727V86H12.5684V78.3977H8.4604V86H7.1479V77.2727H13.8809ZM18.5492 86.1321C17.9355 86.1321 17.4 85.9915 16.9426 85.7102C16.4853 85.429 16.1301 85.0355 15.8773 84.5298C15.6245 84.0241 15.498 83.4332 15.498 82.7571C15.498 82.0781 15.6245 81.4844 15.8773 80.9759C16.1301 80.4673 16.4853 80.0724 16.9426 79.7912C17.4 79.5099 17.9355 79.3693 18.5492 79.3693C19.1628 79.3693 19.6983 79.5099 20.1557 79.7912C20.6131 80.0724 20.9682 80.4673 21.2211 80.9759C21.4739 81.4844 21.6003 82.0781 21.6003 82.7571C21.6003 83.4332 21.4739 84.0241 21.2211 84.5298C20.9682 85.0355 20.6131 85.429 20.1557 85.7102C19.6983 85.9915 19.1628 86.1321 18.5492 86.1321ZM18.5534 85.0625C18.9512 85.0625 19.2807 84.9574 19.5421 84.7472C19.8034 84.5369 19.9966 84.2571 20.1216 83.9077C20.2495 83.5582 20.3134 83.1733 20.3134 82.7528C20.3134 82.3352 20.2495 81.9517 20.1216 81.6023C19.9966 81.25 19.8034 80.9673 19.5421 80.7543C19.2807 80.5412 18.9512 80.4347 18.5534 80.4347C18.1529 80.4347 17.8205 80.5412 17.5563 80.7543C17.2949 80.9673 17.1003 81.25 16.9725 81.6023C16.8475 81.9517 16.785 82.3352 16.785 82.7528C16.785 83.1733 16.8475 83.5582 16.9725 83.9077C17.1003 84.2571 17.2949 84.5369 17.5563 84.7472C17.8205 84.9574 18.1529 85.0625 18.5534 85.0625ZM23.0225 86V79.4545H25.737C26.4757 79.4545 27.0609 79.6122 27.4927 79.9276C27.9245 80.2401 28.1404 80.6648 28.1404 81.2017C28.1404 81.5852 28.0183 81.8892 27.774 82.1136C27.5297 82.3381 27.2058 82.4886 26.8024 82.5653C27.095 82.5994 27.3635 82.6875 27.6078 82.8295C27.8521 82.9687 28.0481 83.1562 28.1958 83.392C28.3464 83.6278 28.4217 83.9091 28.4217 84.2358C28.4217 84.5824 28.3322 84.8892 28.1532 85.1562C27.9743 85.4205 27.7143 85.6278 27.3734 85.7784C27.0353 85.9261 26.6277 86 26.1504 86H23.0225ZM24.22 84.9347H26.1504C26.4657 84.9347 26.7129 84.8594 26.8919 84.7088C27.0708 84.5582 27.1603 84.3537 27.1603 84.0952C27.1603 83.7912 27.0708 83.5526 26.8919 83.3793C26.7129 83.2031 26.4657 83.1151 26.1504 83.1151H24.22V84.9347ZM24.22 82.1818H25.7498C25.9885 82.1818 26.193 82.1477 26.3635 82.0795C26.5368 82.0114 26.6689 81.9148 26.7598 81.7898C26.8535 81.6619 26.9004 81.5114 26.9004 81.3381C26.9004 81.0852 26.7967 80.8878 26.5893 80.7457C26.3819 80.6037 26.0978 80.5327 25.737 80.5327H24.22V82.1818ZM29.4529 80.554V79.4545H34.9757V80.554H32.8407V86H31.5964V80.554H29.4529ZM38.7757 86.1321C38.1621 86.1321 37.6266 85.9915 37.1692 85.7102C36.7118 85.429 36.3567 85.0355 36.1039 84.5298C35.851 84.0241 35.7246 83.4332 35.7246 82.7571C35.7246 82.0781 35.851 81.4844 36.1039 80.9759C36.3567 80.4673 36.7118 80.0724 37.1692 79.7912C37.6266 79.5099 38.1621 79.3693 38.7757 79.3693C39.3894 79.3693 39.9249 79.5099 40.3823 79.7912C40.8397 80.0724 41.1948 80.4673 41.4476 80.9759C41.7005 81.4844 41.8269 82.0781 41.8269 82.7571C41.8269 83.4332 41.7005 84.0241 41.4476 84.5298C41.1948 85.0355 40.8397 85.429 40.3823 85.7102C39.9249 85.9915 39.3894 86.1321 38.7757 86.1321ZM38.78 85.0625C39.1777 85.0625 39.5073 84.9574 39.7686 84.7472C40.03 84.5369 40.2232 84.2571 40.3482 83.9077C40.476 83.5582 40.54 83.1733 40.54 82.7528C40.54 82.3352 40.476 81.9517 40.3482 81.6023C40.2232 81.25 40.03 80.9673 39.7686 80.7543C39.5073 80.5412 39.1777 80.4347 38.78 80.4347C38.3794 80.4347 38.0471 80.5412 37.7828 80.7543C37.5215 80.9673 37.3269 81.25 37.199 81.6023C37.074 81.9517 37.0115 82.3352 37.0115 82.7528C37.0115 83.1733 37.074 83.5582 37.199 83.9077C37.3269 84.2571 37.5215 84.5369 37.7828 84.7472C38.0471 84.9574 38.3794 85.0625 38.78 85.0625ZM43.2491 88.4545V79.4545H44.4934V80.5156H44.6C44.6738 80.3793 44.7804 80.2216 44.9196 80.0426C45.0588 79.8636 45.252 79.7074 45.4991 79.5739C45.7463 79.4375 46.073 79.3693 46.4792 79.3693C47.0076 79.3693 47.4792 79.5028 47.894 79.7699C48.3088 80.0369 48.6341 80.4219 48.8699 80.9247C49.1085 81.4276 49.2278 82.0327 49.2278 82.7401C49.2278 83.4474 49.1099 84.054 48.8741 84.5597C48.6383 85.0625 48.3145 85.4503 47.9025 85.723C47.4906 85.9929 47.0204 86.1278 46.492 86.1278C46.0943 86.1278 45.769 86.0611 45.5162 85.9276C45.2662 85.794 45.0701 85.6378 44.9281 85.4588C44.786 85.2798 44.6767 85.1207 44.6 84.9815H44.5233V88.4545H43.2491ZM44.4977 82.7273C44.4977 83.1875 44.5645 83.5909 44.698 83.9375C44.8315 84.2841 45.0247 84.5554 45.2775 84.7514C45.5304 84.9446 45.84 85.0412 46.2065 85.0412C46.5872 85.0412 46.9054 84.9403 47.161 84.7386C47.4167 84.5341 47.6099 84.2571 47.7406 83.9077C47.8741 83.5582 47.9409 83.1648 47.9409 82.7273C47.9409 82.2955 47.8755 81.9077 47.7449 81.5639C47.617 81.2202 47.4238 80.9489 47.1653 80.75C46.9096 80.5511 46.59 80.4517 46.2065 80.4517C45.8372 80.4517 45.5247 80.5469 45.269 80.7372C45.0162 80.9276 44.8244 81.1932 44.6937 81.5341C44.563 81.875 44.4977 82.2727 44.4977 82.7273ZM51.9039 84.2145L54.7889 79.4545H56.161V86H54.9125V81.2358L52.0403 86H50.6554V79.4545H51.9039V84.2145ZM57.0623 80.554V79.4545H62.5851V80.554H60.4501V86H59.2058V80.554H57.0623ZM66.449 86.1321C65.8042 86.1321 65.2488 85.9943 64.7828 85.7188C64.3198 85.4403 63.9618 85.0497 63.709 84.5469C63.459 84.0412 63.334 83.4489 63.334 82.7699C63.334 82.0994 63.459 81.5085 63.709 80.9972C63.9618 80.4858 64.3141 80.0866 64.7658 79.7997C65.2203 79.5128 65.7516 79.3693 66.3596 79.3693C66.7289 79.3693 67.0868 79.4304 67.4334 79.5526C67.78 79.6747 68.0911 79.8665 68.3667 80.1278C68.6422 80.3892 68.8596 80.7287 69.0186 81.1463C69.1777 81.5611 69.2573 82.0653 69.2573 82.6591V83.1108H64.0542V82.1562H68.0087C68.0087 81.821 67.9405 81.5241 67.8042 81.2656C67.6678 81.0043 67.476 80.7983 67.2289 80.6477C66.9846 80.4972 66.6976 80.4219 66.3681 80.4219C66.0101 80.4219 65.6976 80.5099 65.4306 80.6861C65.1664 80.8594 64.9618 81.0866 64.8169 81.3679C64.6749 81.6463 64.6039 81.9489 64.6039 82.2756V83.0213C64.6039 83.4588 64.6806 83.831 64.834 84.1378C64.9902 84.4446 65.2076 84.679 65.486 84.8409C65.7644 85 66.0897 85.0795 66.4618 85.0795C66.7033 85.0795 66.9235 85.0455 67.1223 84.9773C67.3212 84.9062 67.4931 84.8011 67.638 84.6619C67.7828 84.5227 67.8936 84.3509 67.9703 84.1463L69.1763 84.3636C69.0797 84.7187 68.9064 85.0298 68.6564 85.2969C68.4093 85.5611 68.0982 85.767 67.7232 85.9148C67.351 86.0597 66.9263 86.1321 66.449 86.1321ZM73.8468 86V79.4545H79.1863V86H77.9377V80.554H75.0868V86H73.8468ZM83.6468 86.1321C83.0332 86.1321 82.4977 85.9915 82.0403 85.7102C81.5829 85.429 81.2278 85.0355 80.975 84.5298C80.7221 84.0241 80.5957 83.4332 80.5957 82.7571C80.5957 82.0781 80.7221 81.4844 80.975 80.9759C81.2278 80.4673 81.5829 80.0724 82.0403 79.7912C82.4977 79.5099 83.0332 79.3693 83.6468 79.3693C84.2605 79.3693 84.796 79.5099 85.2534 79.7912C85.7108 80.0724 86.0659 80.4673 86.3187 80.9759C86.5716 81.4844 86.698 82.0781 86.698 82.7571C86.698 83.4332 86.5716 84.0241 86.3187 84.5298C86.0659 85.0355 85.7108 85.429 85.2534 85.7102C84.796 85.9915 84.2605 86.1321 83.6468 86.1321ZM83.6511 85.0625C84.0488 85.0625 84.3784 84.9574 84.6397 84.7472C84.9011 84.5369 85.0943 84.2571 85.2193 83.9077C85.3471 83.5582 85.411 83.1733 85.411 82.7528C85.411 82.3352 85.3471 81.9517 85.2193 81.6023C85.0943 81.25 84.9011 80.9673 84.6397 80.7543C84.3784 80.5412 84.0488 80.4347 83.6511 80.4347C83.2505 80.4347 82.9181 80.5412 82.6539 80.7543C82.3926 80.9673 82.198 81.25 82.0701 81.6023C81.9451 81.9517 81.8826 82.3352 81.8826 82.7528C81.8826 83.1733 81.9451 83.5582 82.0701 83.9077C82.198 84.2571 82.3926 84.5369 82.6539 84.7472C82.9181 84.9574 83.2505 85.0625 83.6511 85.0625ZM89.3688 84.2145L92.2537 79.4545H93.6259V86H92.3773V81.2358L89.5051 86H88.1202V79.4545H89.3688V84.2145ZM98.0961 86.1321C97.4625 86.1321 96.9171 85.9886 96.4597 85.7017C96.0051 85.4119 95.6557 85.0128 95.4114 84.5043C95.1671 83.9957 95.0449 83.4134 95.0449 82.7571C95.0449 82.0923 95.1699 81.5057 95.4199 80.9972C95.6699 80.4858 96.0222 80.0866 96.4767 79.7997C96.9313 79.5128 97.4668 79.3693 98.0833 79.3693C98.5804 79.3693 99.0236 79.4616 99.4128 79.6463C99.802 79.8281 100.116 80.0838 100.355 80.4134C100.596 80.7429 100.74 81.1278 100.785 81.5682H99.5449C99.4767 81.2614 99.3205 80.9972 99.0762 80.7756C98.8347 80.554 98.5108 80.4432 98.1046 80.4432C97.7495 80.4432 97.4384 80.5369 97.1713 80.7244C96.9071 80.9091 96.7012 81.1733 96.5534 81.517C96.4057 81.858 96.3319 82.2614 96.3319 82.7273C96.3319 83.2045 96.4043 83.6165 96.5492 83.9631C96.6941 84.3097 96.8986 84.5781 97.1628 84.7685C97.4299 84.9588 97.7438 85.054 98.1046 85.054C98.3461 85.054 98.5648 85.0099 98.7608 84.9219C98.9597 84.831 99.1259 84.7017 99.2594 84.5341C99.3958 84.3665 99.4909 84.1648 99.5449 83.929H100.785C100.74 84.3523 100.602 84.7301 100.372 85.0625C100.142 85.3949 99.8333 85.6562 99.4469 85.8466C99.0634 86.0369 98.6131 86.1321 98.0961 86.1321ZM102.148 86V79.4545H103.422V82.1989H104.035L106.196 79.4545H107.773L105.237 82.6378L107.802 86H106.221L104.248 83.3835H103.422V86H102.148ZM113.216 84.2145L116.101 79.4545H117.474V86H116.225V81.2358L113.353 86H111.968V79.4545H113.216V84.2145ZM118.671 86L118.667 84.8963H118.901C119.083 84.8963 119.235 84.858 119.357 84.7812C119.482 84.7017 119.584 84.5682 119.664 84.3807C119.743 84.1932 119.805 83.9347 119.847 83.6051C119.89 83.2727 119.921 82.8551 119.941 82.3523L120.056 79.4545H124.624V86H123.376V80.554H121.236L121.134 82.7784C121.108 83.3182 121.053 83.7898 120.968 84.1932C120.885 84.5966 120.765 84.9332 120.606 85.2031C120.447 85.4702 120.242 85.6705 119.992 85.804C119.742 85.9347 119.438 86 119.08 86H118.671ZM127.572 84.2145L130.457 79.4545H131.829V86H130.58V81.2358L127.708 86H126.323V79.4545H127.572V84.2145ZM137.966 84.2145L140.851 79.4545H142.224V86H140.975V81.2358L138.103 86H136.718V79.4545H137.966V84.2145ZM146.694 86.1321C146.06 86.1321 145.515 85.9886 145.057 85.7017C144.603 85.4119 144.253 85.0128 144.009 84.5043C143.765 83.9957 143.643 83.4134 143.643 82.7571C143.643 82.0923 143.768 81.5057 144.018 80.9972C144.268 80.4858 144.62 80.0866 145.074 79.7997C145.529 79.5128 146.064 79.3693 146.681 79.3693C147.178 79.3693 147.621 79.4616 148.01 79.6463C148.4 79.8281 148.714 80.0838 148.952 80.4134C149.194 80.7429 149.337 81.1278 149.383 81.5682H148.143C148.074 81.2614 147.918 80.9972 147.674 80.7756C147.432 80.554 147.108 80.4432 146.702 80.4432C146.347 80.4432 146.036 80.5369 145.769 80.7244C145.505 80.9091 145.299 81.1733 145.151 81.517C145.003 81.858 144.93 82.2614 144.93 82.7273C144.93 83.2045 145.002 83.6165 145.147 83.9631C145.292 84.3097 145.496 84.5781 145.76 84.7685C146.028 84.9588 146.341 85.054 146.702 85.054C146.944 85.054 147.162 85.0099 147.358 84.9219C147.557 84.831 147.724 84.7017 147.857 84.5341C147.993 84.3665 148.089 84.1648 148.143 83.929H149.383C149.337 84.3523 149.199 84.7301 148.969 85.0625C148.739 85.3949 148.431 85.6562 148.045 85.8466C147.661 86.0369 147.211 86.1321 146.694 86.1321ZM150.745 86V79.4545H156.085V86H154.836V80.554H151.985V86H150.745ZM160.545 86.1321C159.932 86.1321 159.396 85.9915 158.939 85.7102C158.481 85.429 158.126 85.0355 157.873 84.5298C157.621 84.0241 157.494 83.4332 157.494 82.7571C157.494 82.0781 157.621 81.4844 157.873 80.9759C158.126 80.4673 158.481 80.0724 158.939 79.7912C159.396 79.5099 159.932 79.3693 160.545 79.3693C161.159 79.3693 161.694 79.5099 162.152 79.7912C162.609 80.0724 162.964 80.4673 163.217 80.9759C163.47 81.4844 163.596 82.0781 163.596 82.7571C163.596 83.4332 163.47 84.0241 163.217 84.5298C162.964 85.0355 162.609 85.429 162.152 85.7102C161.694 85.9915 161.159 86.1321 160.545 86.1321ZM160.55 85.0625C160.947 85.0625 161.277 84.9574 161.538 84.7472C161.8 84.5369 161.993 84.2571 162.118 83.9077C162.246 83.5582 162.309 83.1733 162.309 82.7528C162.309 82.3352 162.246 81.9517 162.118 81.6023C161.993 81.25 161.8 80.9673 161.538 80.7543C161.277 80.5412 160.947 80.4347 160.55 80.4347C160.149 80.4347 159.817 80.5412 159.552 80.7543C159.291 80.9673 159.096 81.25 158.969 81.6023C158.844 81.9517 158.781 82.3352 158.781 82.7528C158.781 83.1733 158.844 83.5582 158.969 83.9077C159.096 84.2571 159.291 84.5369 159.552 84.7472C159.817 84.9574 160.149 85.0625 160.55 85.0625ZM164.503 86L164.499 84.8963H164.733C164.915 84.8963 165.067 84.858 165.189 84.7812C165.314 84.7017 165.416 84.5682 165.496 84.3807C165.575 84.1932 165.637 83.9347 165.679 83.6051C165.722 83.2727 165.753 82.8551 165.773 82.3523L165.888 79.4545H170.456V86H169.208V80.554H167.068L166.966 82.7784C166.941 83.3182 166.885 83.7898 166.8 84.1932C166.718 84.5966 166.597 84.9332 166.438 85.2031C166.279 85.4702 166.074 85.6705 165.824 85.804C165.574 85.9347 165.27 86 164.912 86H164.503ZM173.114 81.7045H175.015C175.816 81.7045 176.432 81.9034 176.864 82.3011C177.296 82.6989 177.512 83.2116 177.512 83.8395C177.512 84.2486 177.415 84.6165 177.222 84.9432C177.029 85.2699 176.746 85.5284 176.374 85.7188C176.002 85.9062 175.549 86 175.015 86H172.155V79.4545H173.404V84.9006H175.015C175.381 84.9006 175.682 84.8054 175.918 84.6151C176.154 84.4219 176.272 84.1761 176.272 83.8778C176.272 83.5625 176.154 83.3054 175.918 83.1065C175.682 82.9048 175.381 82.804 175.015 82.804H173.114V81.7045ZM178.553 84.2699H179.857C179.874 84.5369 179.994 84.7429 180.219 84.8878C180.446 85.0327 180.74 85.1051 181.101 85.1051C181.468 85.1051 181.78 85.027 182.039 84.8707C182.297 84.7116 182.426 84.4659 182.426 84.1335C182.426 83.9347 182.377 83.7614 182.277 83.6136C182.181 83.4631 182.043 83.3466 181.864 83.2642C181.688 83.1818 181.479 83.1406 181.237 83.1406H180.172V82.1392H181.237C181.598 82.1392 181.868 82.0568 182.047 81.892C182.226 81.7273 182.316 81.5213 182.316 81.2741C182.316 81.0071 182.219 80.7926 182.026 80.6307C181.835 80.4659 181.57 80.3835 181.229 80.3835C180.882 80.3835 180.594 80.4616 180.364 80.6179C180.134 80.7713 180.013 80.9702 180.002 81.2145H178.715C178.723 80.848 178.834 80.527 179.047 80.2514C179.263 79.973 179.553 79.7571 179.916 79.6037C180.283 79.4474 180.699 79.3693 181.165 79.3693C181.651 79.3693 182.071 79.4474 182.426 79.6037C182.781 79.7599 183.056 79.9759 183.249 80.2514C183.445 80.527 183.543 80.8437 183.543 81.2017C183.543 81.5625 183.435 81.858 183.219 82.0881C183.006 82.3153 182.727 82.4787 182.384 82.5781V82.6463C182.637 82.6634 182.861 82.7401 183.057 82.8764C183.253 83.0128 183.406 83.1932 183.517 83.4176C183.628 83.642 183.683 83.8963 183.683 84.1804C183.683 84.581 183.573 84.9276 183.351 85.2202C183.132 85.5128 182.828 85.7386 182.439 85.8977C182.053 86.054 181.611 86.1321 181.114 86.1321C180.631 86.1321 180.198 86.0568 179.814 85.9062C179.433 85.7528 179.131 85.5369 178.906 85.2585C178.685 84.9801 178.567 84.6506 178.553 84.2699ZM185.805 88.4545C185.614 88.4545 185.441 88.4389 185.285 88.4077C185.128 88.3793 185.012 88.348 184.935 88.3139L185.242 87.2699C185.475 87.3324 185.682 87.3594 185.864 87.3509C186.046 87.3423 186.206 87.2741 186.346 87.1463C186.488 87.0185 186.613 86.8097 186.721 86.5199L186.878 86.0852L184.483 79.4545H185.847L187.505 84.5341H187.573L189.231 79.4545H190.599L187.901 86.8736C187.776 87.2145 187.617 87.5028 187.424 87.7386C187.231 87.9773 187.001 88.1563 186.733 88.2756C186.466 88.3949 186.157 88.4545 185.805 88.4545ZM193.045 84.2145L195.93 79.4545H197.302V86H196.053V81.2358L193.181 86H191.796V79.4545H193.045V84.2145ZM195.384 77.2386H196.432C196.432 77.7187 196.262 78.1094 195.921 78.4105C195.583 78.7088 195.126 78.858 194.549 78.858C193.975 78.858 193.519 78.7088 193.181 78.4105C192.843 78.1094 192.674 77.7187 192.674 77.2386H193.718C193.718 77.4517 193.78 77.6406 193.905 77.8054C194.03 77.9673 194.245 78.0483 194.549 78.0483C194.847 78.0483 195.06 77.9673 195.188 77.8054C195.319 77.6435 195.384 77.4545 195.384 77.2386ZM198.203 80.554V79.4545H203.726V80.554H201.591V86H200.346V80.554H198.203ZM207.59 86.1321C206.945 86.1321 206.389 85.9943 205.923 85.7188C205.46 85.4403 205.102 85.0497 204.85 84.5469C204.6 84.0412 204.475 83.4489 204.475 82.7699C204.475 82.0994 204.6 81.5085 204.85 80.9972C205.102 80.4858 205.455 80.0866 205.906 79.7997C206.361 79.5128 206.892 79.3693 207.5 79.3693C207.869 79.3693 208.227 79.4304 208.574 79.5526C208.921 79.6747 209.232 79.8665 209.507 80.1278C209.783 80.3892 210 80.7287 210.159 81.1463C210.318 81.5611 210.398 82.0653 210.398 82.6591V83.1108H205.195V82.1562H209.149C209.149 81.821 209.081 81.5241 208.945 81.2656C208.808 81.0043 208.617 80.7983 208.369 80.6477C208.125 80.4972 207.838 80.4219 207.509 80.4219C207.151 80.4219 206.838 80.5099 206.571 80.6861C206.307 80.8594 206.102 81.0866 205.958 81.3679C205.816 81.6463 205.744 81.9489 205.744 82.2756V83.0213C205.744 83.4588 205.821 83.831 205.975 84.1378C206.131 84.4446 206.348 84.679 206.627 84.8409C206.905 85 207.23 85.0795 207.602 85.0795C207.844 85.0795 208.064 85.0455 208.263 84.9773C208.462 84.9062 208.634 84.8011 208.779 84.6619C208.923 84.5227 209.034 84.3509 209.111 84.1463L210.317 84.3636C210.22 84.7187 210.047 85.0298 209.797 85.2969C209.55 85.5611 209.239 85.767 208.864 85.9148C208.492 86.0597 208.067 86.1321 207.59 86.1321ZM217.804 88.2287V77.2727H219.078V88.2287H217.804ZM217.804 86.1321C217.341 86.1321 216.919 86.0526 216.539 85.8935C216.158 85.7315 215.83 85.5014 215.554 85.2031C215.279 84.9048 215.066 84.5483 214.915 84.1335C214.767 83.7187 214.693 83.2599 214.693 82.7571C214.693 82.2486 214.767 81.7869 214.915 81.3722C215.066 80.9574 215.279 80.6009 215.554 80.3026C215.83 80.0043 216.158 79.7741 216.539 79.6122C216.919 79.4503 217.341 79.3693 217.804 79.3693H218.119V86.1321H217.804ZM217.804 85.0582H217.983V80.4432H217.804C217.497 80.4432 217.23 80.5057 217.003 80.6307C216.776 80.7528 216.587 80.9219 216.436 81.1378C216.286 81.3509 216.172 81.5966 216.095 81.875C216.021 82.1534 215.985 82.4474 215.985 82.7571C215.985 83.1719 216.051 83.554 216.185 83.9034C216.318 84.25 216.52 84.5298 216.79 84.7429C217.06 84.9531 217.398 85.0582 217.804 85.0582ZM219.078 86.1321H218.759V79.3693H219.078C219.541 79.3693 219.963 79.4503 220.344 79.6122C220.725 79.7741 221.051 80.0043 221.324 80.3026C221.6 80.6009 221.811 80.9574 221.959 81.3722C222.11 81.7869 222.185 82.2486 222.185 82.7571C222.185 83.2599 222.11 83.7187 221.959 84.1335C221.811 84.5483 221.6 84.9048 221.324 85.2031C221.051 85.5014 220.725 85.7315 220.344 85.8935C219.963 86.0526 219.541 86.1321 219.078 86.1321ZM219.078 85.0582C219.385 85.0582 219.652 84.9986 219.879 84.8793C220.107 84.7571 220.296 84.5895 220.446 84.3764C220.597 84.1605 220.709 83.9148 220.783 83.6392C220.857 83.3608 220.894 83.0668 220.894 82.7571C220.894 82.3452 220.827 81.9645 220.693 81.6151C220.563 81.2628 220.362 80.9801 220.093 80.767C219.823 80.5511 219.485 80.4432 219.078 80.4432H218.895V85.0582H219.078ZM224.849 84.2145L227.734 79.4545H229.106V86H227.858V81.2358L224.986 86H223.601V79.4545H224.849V84.2145ZM230.304 86L230.3 84.8963H230.534C230.716 84.8963 230.868 84.858 230.99 84.7812C231.115 84.7017 231.217 84.5682 231.297 84.3807C231.376 84.1932 231.437 83.9347 231.48 83.6051C231.523 83.2727 231.554 82.8551 231.574 82.3523L231.689 79.4545H236.257V86H235.008V80.554H232.869L232.767 82.7784C232.741 83.3182 232.686 83.7898 232.601 84.1932C232.518 84.5966 232.398 84.9332 232.238 85.2031C232.079 85.4702 231.875 85.6705 231.625 85.804C231.375 85.9347 231.071 86 230.713 86H230.304ZM238.915 81.7045H240.816C241.617 81.7045 242.233 81.9034 242.665 82.3011C243.097 82.6989 243.313 83.2116 243.313 83.8395C243.313 84.2486 243.216 84.6165 243.023 84.9432C242.83 85.2699 242.547 85.5284 242.175 85.7188C241.803 85.9062 241.35 86 240.816 86H237.956V79.4545H239.205V84.9006H240.816C241.182 84.9006 241.483 84.8054 241.719 84.6151C241.955 84.4219 242.073 84.1761 242.073 83.8778C242.073 83.5625 241.955 83.3054 241.719 83.1065C241.483 82.9048 241.182 82.804 240.816 82.804H238.915V81.7045ZM243.695 80.554V79.4545H249.218V80.554H247.083V86H245.839V80.554H243.695ZM250.566 88.4545V79.4545H251.81V80.5156H251.916C251.99 80.3793 252.097 80.2216 252.236 80.0426C252.375 79.8636 252.568 79.7074 252.816 79.5739C253.063 79.4375 253.389 79.3693 253.796 79.3693C254.324 79.3693 254.796 79.5028 255.21 79.7699C255.625 80.0369 255.95 80.4219 256.186 80.9247C256.425 81.4276 256.544 82.0327 256.544 82.7401C256.544 83.4474 256.426 84.054 256.191 84.5597C255.955 85.0625 255.631 85.4503 255.219 85.723C254.807 85.9929 254.337 86.1278 253.808 86.1278C253.411 86.1278 253.085 86.0611 252.833 85.9276C252.583 85.794 252.387 85.6378 252.244 85.4588C252.102 85.2798 251.993 85.1207 251.916 84.9815H251.84V88.4545H250.566ZM251.814 82.7273C251.814 83.1875 251.881 83.5909 252.014 83.9375C252.148 84.2841 252.341 84.5554 252.594 84.7514C252.847 84.9446 253.156 85.0412 253.523 85.0412C253.904 85.0412 254.222 84.9403 254.477 84.7386C254.733 84.5341 254.926 84.2571 255.057 83.9077C255.191 83.5582 255.257 83.1648 255.257 82.7273C255.257 82.2955 255.192 81.9077 255.061 81.5639C254.933 81.2202 254.74 80.9489 254.482 80.75C254.226 80.5511 253.906 80.4517 253.523 80.4517C253.154 80.4517 252.841 80.5469 252.585 80.7372C252.333 80.9276 252.141 81.1932 252.01 81.5341C251.879 81.875 251.814 82.2727 251.814 82.7273ZM260.508 87.8878V84.8963H261.041C261.177 84.7713 261.292 84.6222 261.386 84.4489C261.483 84.2756 261.564 84.0696 261.629 83.831C261.697 83.5923 261.754 83.3139 261.8 82.9957C261.845 82.6747 261.885 82.3082 261.919 81.8963L262.123 79.4545H266.572V84.8963H267.578V87.8878H266.334V86H261.77V87.8878H260.508ZM262.405 84.8963H265.328V80.5455H263.265L263.129 81.8963C263.064 82.5838 262.981 83.1804 262.882 83.6861C262.782 84.1889 262.623 84.5923 262.405 84.8963ZM268.308 86L268.303 84.8963H268.538C268.72 84.8963 268.872 84.858 268.994 84.7812C269.119 84.7017 269.221 84.5682 269.301 84.3807C269.38 84.1932 269.441 83.9347 269.484 83.6051C269.526 83.2727 269.558 82.8551 269.578 82.3523L269.693 79.4545H274.261V86H273.012V80.554H270.873L270.771 82.7784C270.745 83.3182 270.69 83.7898 270.605 84.1932C270.522 84.5966 270.401 84.9332 270.242 85.2031C270.083 85.4702 269.879 85.6705 269.629 85.804C269.379 85.9347 269.075 86 268.717 86H268.308ZM279.863 86V80.5412H278.295C277.923 80.5412 277.633 80.6278 277.426 80.8011C277.219 80.9744 277.115 81.2017 277.115 81.483C277.115 81.7614 277.21 81.9858 277.4 82.1562C277.594 82.3239 277.863 82.4077 278.21 82.4077H280.234V83.4389H278.21C277.727 83.4389 277.309 83.3594 276.957 83.2003C276.608 83.0384 276.338 82.8097 276.148 82.5142C275.96 82.2187 275.866 81.8693 275.866 81.4659C275.866 81.054 275.963 80.6989 276.156 80.4006C276.352 80.0994 276.632 79.8665 276.996 79.7017C277.362 79.5369 277.795 79.4545 278.295 79.4545H281.061V86H279.863ZM275.568 86L277.413 82.6932H278.717L276.872 86H275.568ZM71.1136 106.132C70.4801 106.132 69.9347 105.989 69.4773 105.702C69.0227 105.412 68.6733 105.013 68.429 104.504C68.1847 103.996 68.0625 103.413 68.0625 102.757C68.0625 102.092 68.1875 101.506 68.4375 100.997C68.6875 100.486 69.0398 100.087 69.4943 99.7997C69.9489 99.5128 70.4844 99.3693 71.1009 99.3693C71.598 99.3693 72.0412 99.4616 72.4304 99.6463C72.8196 99.8281 73.1335 100.084 73.3722 100.413C73.6136 100.743 73.7571 101.128 73.8026 101.568H72.5625C72.4943 101.261 72.3381 100.997 72.0938 100.776C71.8523 100.554 71.5284 100.443 71.1222 100.443C70.767 100.443 70.456 100.537 70.1889 100.724C69.9247 100.909 69.7188 101.173 69.571 101.517C69.4233 101.858 69.3494 102.261 69.3494 102.727C69.3494 103.205 69.4219 103.616 69.5668 103.963C69.7116 104.31 69.9162 104.578 70.1804 104.768C70.4474 104.959 70.7614 105.054 71.1222 105.054C71.3636 105.054 71.5824 105.01 71.7784 104.922C71.9773 104.831 72.1435 104.702 72.277 104.534C72.4134 104.366 72.5085 104.165 72.5625 103.929H73.8026C73.7571 104.352 73.6193 104.73 73.3892 105.062C73.1591 105.395 72.8509 105.656 72.4645 105.847C72.081 106.037 71.6307 106.132 71.1136 106.132ZM74.6697 100.554V99.4545H80.1925V100.554H78.0575V106H76.8132V100.554H74.6697ZM81.5401 108.455V99.4545H82.7844V100.516H82.891C82.9648 100.379 83.0714 100.222 83.2106 100.043C83.3498 99.8636 83.543 99.7074 83.7901 99.5739C84.0373 99.4375 84.364 99.3693 84.7702 99.3693C85.2987 99.3693 85.7702 99.5028 86.185 99.7699C86.5998 100.037 86.9251 100.422 87.1609 100.925C87.3995 101.428 87.5188 102.033 87.5188 102.74C87.5188 103.447 87.4009 104.054 87.1651 104.56C86.9293 105.062 86.6055 105.45 86.1935 105.723C85.7816 105.993 85.3114 106.128 84.783 106.128C84.3853 106.128 84.06 106.061 83.8072 105.928C83.5572 105.794 83.3612 105.638 83.2191 105.459C83.0771 105.28 82.9677 105.121 82.891 104.982H82.8143V108.455H81.5401ZM82.7887 102.727C82.7887 103.187 82.8555 103.591 82.989 103.938C83.1225 104.284 83.3157 104.555 83.5685 104.751C83.8214 104.945 84.131 105.041 84.4975 105.041C84.8782 105.041 85.1964 104.94 85.4521 104.739C85.7077 104.534 85.9009 104.257 86.0316 103.908C86.1651 103.558 86.2319 103.165 86.2319 102.727C86.2319 102.295 86.1665 101.908 86.0359 101.564C85.908 101.22 85.7148 100.949 85.4563 100.75C85.2006 100.551 84.881 100.452 84.4975 100.452C84.1282 100.452 83.8157 100.547 83.56 100.737C83.3072 100.928 83.1154 101.193 82.9847 101.534C82.854 101.875 82.7887 102.273 82.7887 102.727ZM89.5291 108.455C89.3388 108.455 89.1655 108.439 89.0092 108.408C88.853 108.379 88.7365 108.348 88.6598 108.314L88.9666 107.27C89.1996 107.332 89.407 107.359 89.5888 107.351C89.7706 107.342 89.9311 107.274 90.0703 107.146C90.2124 107.018 90.3374 106.81 90.4453 106.52L90.603 106.085L88.2081 99.4545H89.5717L91.2294 104.534H91.2976L92.9553 99.4545H94.3232L91.6257 106.874C91.5007 107.214 91.3416 107.503 91.1484 107.739C90.9553 107.977 90.7251 108.156 90.4581 108.276C90.1911 108.395 89.8814 108.455 89.5291 108.455ZM95.5206 106V99.4545H96.7947V102.199H97.4084L99.5689 99.4545H101.146L98.6101 102.638L101.175 106H99.5945L97.6214 103.384H96.7947V106H95.5206ZM101.799 100.554V99.4545H107.321V100.554H105.186V106H103.942V100.554H101.799ZM109.474 108.455C109.284 108.455 109.111 108.439 108.955 108.408C108.798 108.379 108.682 108.348 108.605 108.314L108.912 107.27C109.145 107.332 109.352 107.359 109.534 107.351C109.716 107.342 109.876 107.274 110.016 107.146C110.158 107.018 110.283 106.81 110.391 106.52L110.548 106.085L108.153 99.4545H109.517L111.175 104.534H111.243L112.901 99.4545H114.268L111.571 106.874C111.446 107.214 111.287 107.503 111.094 107.739C110.901 107.977 110.67 108.156 110.403 108.276C110.136 108.395 109.827 108.455 109.474 108.455ZM115.466 108.455V99.4545H116.71V100.516H116.817C116.891 100.379 116.997 100.222 117.136 100.043C117.276 99.8636 117.469 99.7074 117.716 99.5739C117.963 99.4375 118.29 99.3693 118.696 99.3693C119.224 99.3693 119.696 99.5028 120.111 99.7699C120.526 100.037 120.851 100.422 121.087 100.925C121.325 101.428 121.445 102.033 121.445 102.74C121.445 103.447 121.327 104.054 121.091 104.56C120.855 105.062 120.531 105.45 120.119 105.723C119.707 105.993 119.237 106.128 118.709 106.128C118.311 106.128 117.986 106.061 117.733 105.928C117.483 105.794 117.287 105.638 117.145 105.459C117.003 105.28 116.893 105.121 116.817 104.982H116.74V108.455H115.466ZM116.714 102.727C116.714 103.187 116.781 103.591 116.915 103.938C117.048 104.284 117.241 104.555 117.494 104.751C117.747 104.945 118.057 105.041 118.423 105.041C118.804 105.041 119.122 104.94 119.378 104.739C119.634 104.534 119.827 104.257 119.957 103.908C120.091 103.558 120.158 103.165 120.158 102.727C120.158 102.295 120.092 101.908 119.962 101.564C119.834 101.22 119.641 100.949 119.382 100.75C119.126 100.551 118.807 100.452 118.423 100.452C118.054 100.452 117.741 100.547 117.486 100.737C117.233 100.928 117.041 101.193 116.911 101.534C116.78 101.875 116.714 102.273 116.714 102.727ZM124.121 104.214L127.006 99.4545H128.378V106H127.129V101.236L124.257 106H122.872V99.4545H124.121V104.214ZM129.703 104.27H131.007C131.024 104.537 131.145 104.743 131.369 104.888C131.597 105.033 131.891 105.105 132.251 105.105C132.618 105.105 132.93 105.027 133.189 104.871C133.447 104.712 133.577 104.466 133.577 104.134C133.577 103.935 133.527 103.761 133.428 103.614C133.331 103.463 133.193 103.347 133.014 103.264C132.838 103.182 132.629 103.141 132.388 103.141H131.322V102.139H132.388C132.749 102.139 133.018 102.057 133.197 101.892C133.376 101.727 133.466 101.521 133.466 101.274C133.466 101.007 133.369 100.793 133.176 100.631C132.986 100.466 132.72 100.384 132.379 100.384C132.033 100.384 131.744 100.462 131.514 100.618C131.284 100.771 131.163 100.97 131.152 101.214H129.865C129.874 100.848 129.984 100.527 130.197 100.251C130.413 99.973 130.703 99.7571 131.067 99.6037C131.433 99.4474 131.849 99.3693 132.315 99.3693C132.801 99.3693 133.222 99.4474 133.577 99.6037C133.932 99.7599 134.206 99.9759 134.399 100.251C134.595 100.527 134.693 100.844 134.693 101.202C134.693 101.562 134.585 101.858 134.369 102.088C134.156 102.315 133.878 102.479 133.534 102.578V102.646C133.787 102.663 134.011 102.74 134.207 102.876C134.403 103.013 134.557 103.193 134.668 103.418C134.778 103.642 134.834 103.896 134.834 104.18C134.834 104.581 134.723 104.928 134.501 105.22C134.283 105.513 133.979 105.739 133.589 105.898C133.203 106.054 132.761 106.132 132.264 106.132C131.781 106.132 131.348 106.057 130.964 105.906C130.584 105.753 130.281 105.537 130.057 105.259C129.835 104.98 129.717 104.651 129.703 104.27ZM138.054 106.145C137.64 106.145 137.265 106.068 136.929 105.915C136.594 105.759 136.328 105.533 136.132 105.237C135.939 104.942 135.843 104.58 135.843 104.151C135.843 103.781 135.914 103.477 136.056 103.239C136.198 103 136.39 102.811 136.631 102.672C136.873 102.533 137.142 102.428 137.441 102.357C137.739 102.286 138.043 102.232 138.353 102.195C138.745 102.149 139.063 102.112 139.307 102.084C139.551 102.053 139.729 102.003 139.84 101.935C139.951 101.866 140.006 101.756 140.006 101.602V101.572C140.006 101.2 139.901 100.912 139.691 100.707C139.483 100.503 139.174 100.401 138.762 100.401C138.333 100.401 137.995 100.496 137.748 100.686C137.503 100.874 137.334 101.082 137.24 101.312L136.043 101.04C136.185 100.642 136.392 100.321 136.665 100.077C136.941 99.8295 137.257 99.6506 137.615 99.5398C137.973 99.4261 138.35 99.3693 138.745 99.3693C139.006 99.3693 139.283 99.4006 139.576 99.4631C139.871 99.5227 140.147 99.6335 140.402 99.7955C140.661 99.9574 140.873 100.189 141.037 100.49C141.202 100.788 141.284 101.176 141.284 101.653V106H140.04V105.105H139.989C139.907 105.27 139.783 105.432 139.618 105.591C139.453 105.75 139.242 105.882 138.983 105.987C138.725 106.092 138.415 106.145 138.054 106.145ZM138.331 105.122C138.684 105.122 138.985 105.053 139.235 104.913C139.488 104.774 139.679 104.592 139.81 104.368C139.944 104.141 140.01 103.898 140.01 103.639V102.795C139.965 102.841 139.877 102.884 139.746 102.923C139.618 102.96 139.472 102.993 139.307 103.021C139.142 103.047 138.982 103.071 138.826 103.094C138.669 103.114 138.539 103.131 138.434 103.145C138.186 103.176 137.961 103.229 137.756 103.303C137.554 103.376 137.392 103.483 137.27 103.622C137.151 103.759 137.091 103.94 137.091 104.168C137.091 104.483 137.208 104.722 137.441 104.884C137.674 105.043 137.971 105.122 138.331 105.122ZM148.321 99.4545V104.956H149.28V108.109H148.023V106H142.982V99.4545H144.23V104.901H147.077V99.4545H148.321ZM151.941 104.214L154.826 99.4545H156.198V106H154.95V101.236L152.077 106H150.692V99.4545H151.941V104.214ZM159.16 104.214L162.045 99.4545H163.417V106H162.168V101.236L159.296 106H157.911V99.4545H159.16V104.214ZM168.306 106V99.4545H169.58V102.199H170.194L172.354 99.4545H173.931L171.395 102.638L173.961 106H172.38L170.407 103.384H169.58V106H168.306ZM177.438 106.132C176.824 106.132 176.289 105.991 175.831 105.71C175.374 105.429 175.019 105.036 174.766 104.53C174.513 104.024 174.387 103.433 174.387 102.757C174.387 102.078 174.513 101.484 174.766 100.976C175.019 100.467 175.374 100.072 175.831 99.7912C176.289 99.5099 176.824 99.3693 177.438 99.3693C178.051 99.3693 178.587 99.5099 179.044 99.7912C179.502 100.072 179.857 100.467 180.11 100.976C180.363 101.484 180.489 102.078 180.489 102.757C180.489 103.433 180.363 104.024 180.11 104.53C179.857 105.036 179.502 105.429 179.044 105.71C178.587 105.991 178.051 106.132 177.438 106.132ZM177.442 105.062C177.84 105.062 178.169 104.957 178.431 104.747C178.692 104.537 178.885 104.257 179.01 103.908C179.138 103.558 179.202 103.173 179.202 102.753C179.202 102.335 179.138 101.952 179.01 101.602C178.885 101.25 178.692 100.967 178.431 100.754C178.169 100.541 177.84 100.435 177.442 100.435C177.042 100.435 176.709 100.541 176.445 100.754C176.184 100.967 175.989 101.25 175.861 101.602C175.736 101.952 175.674 102.335 175.674 102.753C175.674 103.173 175.736 103.558 175.861 103.908C175.989 104.257 176.184 104.537 176.445 104.747C176.709 104.957 177.042 105.062 177.442 105.062ZM186.347 102.178V103.281H182.802V102.178H186.347ZM183.16 99.4545V106H181.911V99.4545H183.16ZM187.238 99.4545V106H185.994V99.4545H187.238ZM188.131 100.554V99.4545H193.653V100.554H191.518V106H190.274V100.554H188.131ZM197.517 106.132C196.873 106.132 196.317 105.994 195.851 105.719C195.388 105.44 195.03 105.05 194.777 104.547C194.527 104.041 194.402 103.449 194.402 102.77C194.402 102.099 194.527 101.509 194.777 100.997C195.03 100.486 195.382 100.087 195.834 99.7997C196.289 99.5128 196.82 99.3693 197.428 99.3693C197.797 99.3693 198.155 99.4304 198.502 99.5526C198.848 99.6747 199.159 99.8665 199.435 100.128C199.711 100.389 199.928 100.729 200.087 101.146C200.246 101.561 200.326 102.065 200.326 102.659V103.111H195.123V102.156H199.077C199.077 101.821 199.009 101.524 198.873 101.266C198.736 101.004 198.544 100.798 198.297 100.648C198.053 100.497 197.766 100.422 197.436 100.422C197.078 100.422 196.766 100.51 196.499 100.686C196.235 100.859 196.03 101.087 195.885 101.368C195.743 101.646 195.672 101.949 195.672 102.276V103.021C195.672 103.459 195.749 103.831 195.902 104.138C196.059 104.445 196.276 104.679 196.554 104.841C196.833 105 197.158 105.08 197.53 105.08C197.772 105.08 197.992 105.045 198.191 104.977C198.39 104.906 198.561 104.801 198.706 104.662C198.851 104.523 198.962 104.351 199.039 104.146L200.245 104.364C200.148 104.719 199.975 105.03 199.725 105.297C199.478 105.561 199.167 105.767 198.792 105.915C198.419 106.06 197.995 106.132 197.517 106.132ZM206.175 102.178V103.281H202.63V102.178H206.175ZM202.988 99.4545V106H201.739V99.4545H202.988ZM207.066 99.4545V106H205.822V99.4545H207.066ZM207.959 100.554V99.4545H213.482V100.554H211.347V106H210.102V100.554H207.959ZM216.429 106.145C216.015 106.145 215.64 106.068 215.304 105.915C214.969 105.759 214.703 105.533 214.507 105.237C214.314 104.942 214.218 104.58 214.218 104.151C214.218 103.781 214.289 103.477 214.431 103.239C214.573 103 214.765 102.811 215.006 102.672C215.248 102.533 215.517 102.428 215.816 102.357C216.114 102.286 216.418 102.232 216.728 102.195C217.12 102.149 217.438 102.112 217.682 102.084C217.926 102.053 218.104 102.003 218.215 101.935C218.326 101.866 218.381 101.756 218.381 101.602V101.572C218.381 101.2 218.276 100.912 218.066 100.707C217.858 100.503 217.549 100.401 217.137 100.401C216.708 100.401 216.37 100.496 216.123 100.686C215.878 100.874 215.709 101.082 215.615 101.312L214.418 101.04C214.56 100.642 214.767 100.321 215.04 100.077C215.316 99.8295 215.632 99.6506 215.99 99.5398C216.348 99.4261 216.725 99.3693 217.12 99.3693C217.381 99.3693 217.658 99.4006 217.951 99.4631C218.246 99.5227 218.522 99.6335 218.777 99.7955C219.036 99.9574 219.248 100.189 219.412 100.49C219.577 100.788 219.659 101.176 219.659 101.653V106H218.415V105.105H218.364C218.282 105.27 218.158 105.432 217.993 105.591C217.828 105.75 217.617 105.882 217.358 105.987C217.1 106.092 216.79 106.145 216.429 106.145ZM216.706 105.122C217.059 105.122 217.36 105.053 217.61 104.913C217.863 104.774 218.054 104.592 218.185 104.368C218.319 104.141 218.385 103.898 218.385 103.639V102.795C218.34 102.841 218.252 102.884 218.121 102.923C217.993 102.96 217.847 102.993 217.682 103.021C217.517 103.047 217.357 103.071 217.201 103.094C217.044 103.114 216.914 103.131 216.809 103.145C216.561 103.176 216.336 103.229 216.131 103.303C215.929 103.376 215.767 103.483 215.645 103.622C215.526 103.759 215.466 103.94 215.466 104.168C215.466 104.483 215.583 104.722 215.816 104.884C216.049 105.043 216.346 105.122 216.706 105.122Z" fill="#A1A5B7"/>
</svg>
